/* XPM */
static char * fish_xpm[] = {
"45 45 82 1",
" 	c #F4F9FB",
".	c #FDFEFE",
"+	c #E7F1F5",
"@	c #DCEAF0",
"#	c #CBDFEA",
"$	c #D7E7EF",
"%	c #E1EDF3",
"&	c #D1E3EC",
"*	c #C1D8E6",
"=	c #ABC7DC",
"-	c #B4CEE1",
";	c #C6DCE8",
">	c #BCD5E4",
",	c #EDF5F8",
"'	c #B0CBDE",
")	c #B8D1E2",
"!	c #A6C3DA",
"~	c #A1BED7",
"{	c #8FAFCD",
"]	c #99B8D3",
"^	c #9B9C9C",
"/	c #9E9E9F",
"(	c #949494",
"_	c #D5D6D5",
":	c #ACADAD",
"<	c #535251",
"[	c #51504E",
"}	c #464543",
"|	c #B3B7BB",
"1	c #BFC1C1",
"2	c #4B4A49",
"3	c #656867",
"4	c #565655",
"5	c #5A5A5A",
"6	c #717271",
"7	c #7F7E7E",
"8	c #818382",
"9	c #818080",
"0	c #848C91",
"a	c #C7C9CB",
"b	c #84969D",
"c	c #CFCFCE",
"d	c #76797B",
"e	c #9FB5C1",
"f	c #F6F9F9",
"g	c #FBFCFD",
"h	c #FEFEFE",
"i	c #D3E0EB",
"j	c #9FB6C7",
"k	c #A2B7C6",
"l	c #E0E6EB",
"m	c #FFFFFF",
"n	c #E8ECEF",
"o	c #AAC1CE",
"p	c #43413F",
"q	c #CFDCE7",
"r	c #B1C7D2",
"s	c #B2CADE",
"t	c #C8CBCE",
"u	c #5E605F",
"v	c #EFF2F4",
"w	c #C9D8E3",
"x	c #97ADBC",
"y	c #9CB3C5",
"z	c #99B1C0",
"A	c #A5BAC6",
"B	c #787E83",
"C	c #7F868A",
"D	c #C3D3DE",
"E	c #B0BEC6",
"F	c #C8D6E1",
"G	c #9EB4C6",
"H	c #A0AFB6",
"I	c #B2CCD8",
"J	c #D5E5ED",
"K	c #DDDDDC",
"L	c #97A8AE",
"M	c #8EA7B4",
"N	c #90ADBA",
"O	c #C8DCE8",
"P	c #C9CCCE",
"Q	c #B6C0C9",
" .. +@@#$%@%% +$&**=-;>@+$@%$%&;+..,+#&   &#-",
",+,. @$&@@*>@%@@$&&;#&'&@;;&. $+&+%&*%$@@+%&;",
";+@%+@@+&;>>-);&&,%$$$$#&,,,%+,@@*)'=;>;&&&,,",
")>)$$$,+$#@&=>>@ .,,%&&#&%+%$& @$)=='!~-&@+, ",
">==#&+%@++&#&&@,+#+,%@&&&$**+##$';$$@*>)>%+$@",
"#;*)$+#*&%##;#$&)>*;@$##&&)!=@&>#)#$+)#&-)'$,",
";##;;>$&)*&+@**--!{)$&+@;-=!!>'),##)>@  #>=]'",
"@++$*-)@;*,.,%#;>='!-+..,$&#;!~'&@ %++,.. >!~",
",, $&#';%  +..$&&$$*)#++%$;&;>$$;,..,;#%, %##",
"@$,$#&&@+&*^^^^^^^^^^^^^/(_&+&&@&,+&>(//^:.>>",
"*$&$$%#$#~~<[<<<<<<[<<<<<}| .&&$%*)!1}<<23&*%",
"''&%&.$;*>)4<44<<<44444452|+,,$+&-='1244[6=,.",
")!)&,;78970aaaaaaa|b^|c1b^0798d|'*(d(|ee|:9d*",
"$)>&**}[[23fggfffhijklmnjod2<<}/&>3p7lqqir[}$",
"*>)s~t5uu56nnnnnnvwxyivizAB4uu4/,)6<CqDDwE5<#",
"%%#94CnllllFwrkAAAkGykAkyGzxxxz0u3EDDFwrrH5<]",
" % 6pdgvvfvFwrzyyyyGGyyyGGjjjGoC24riwFwIIz<2)",
"JKKC3(vnnnlFFrAAjGGGGGGGGGGyGyA033oDDFwAxL63#",
":[4_gnFFFDDFFFwFkGGGGGGGGGGGGGGjkkezEFqB26#  ",
":<4_gnFwqiqFFFFFkyGGGGGGGGGGGGGGjjjyoFqB26,;#",
":<4aniDw|LHFFFFFkyGGGGGGGGGGGGGjjjjyoFwB26;@%",
":<5EwDDqB}3FFFFFkGGGGGGGGGGGGGGjjjkyoFqB[6!*%",
":<5EqFDqB}3FFFFFkyGGGGGGGGGGGGGjkjjyoFqdp6']]",
":<5eDIww|/LFFFFFkyGGGGGGGGGGGGGzxxGyowwLbb^(!",
":<5xorFFqiqFFFFFkyGGGGGGGGGGGGjxMMyzowwIIe[p>",
":2<HIIwwwFFFFFFFkyGGGGGGGGGjjjjzNNyyowwroH5<)",
"+__83CrrrrrFFFFFkyGGGGGGGGxxxNz033eorwFDFE5[,",
",$&6p6rooorFFFwFAejjjGGGGjzNNMzB24erIwFFqr5[,",
")*#95dEAAAADFDDDkyyyyyyyyGLMMMMC53HAEFDDwE5['",
"{=&O+P4uu53ooGMMMMMMMMMMMxd5uu</%-6<BroorH5[$",
"]~]~'#2<<2urIkNNNNNNNNNNNz62<<p/&-3}dIrrIe<}]",
">=-')-d9978LLbbbbbbbbbbbbbC779d|)@(d0LLLLL8dQ",
">>#*=$%;;-#445444444444452))>>>-& @#>255<6>)-",
" &;;;-==!!;<[[[[[[[[[[[[<}-&,))>;;*=~}<<23> ;",
" %*;$>))~~~/^^^^^^^^^^^^/($.,;*%%=~!'(/^(:@,%",
"#@*&]!)#>'==!=*+@*@+*-)''$+*@,*>=');'~~!',+*;",
"!-$'*=!=*#)=!-*'=-='*)&>);!**)))!>)-$]!!~-!%,",
"{~!'%>*=~=;#>~!!=]{'*>)-!!!!{]'&)~>~]*&#~]]]!",
"~{{~=*$)*@. +>'!]]]]]*  )=!{]{{~&;%>; . #-]{{",
"=]']=&&,. ##.+')))=~-$+,,)=-=!=~= %. *;%.+=~~",
"-!;))$$%>);#+%;-'')!);'-;*!';=)!',,*'&);; %!]",
" !!*===!]]--')>!-,&=!]'!]]=+ ]=@>)-!{>=)=-@'-",
"@+&!~~]~!{{~-'~-,++&*>~~'&%+%%#>)]{]={{=*>]+.",
"#+;$)]~==]]~==-$#>&**-~~),@'++-;]!;)!{~]=)$*)",
"==->*;]=-~!~]~-'~='>-~-~!-!~--*'~#-'=]=]]!)')"};
