/* XPM */
static char *b7a615dcc75b4fc9d66eae762d2530c3Rhdy0BiiUlbmPb09[] = {
/* columns rows colors chars-per-pixel */
"45 45 20 1 ",
"  c #D1E3EC",
". c #C1D8E6",
"X c #B8D1E2",
"o c #CBDFEA",
"O c #BCD5E4",
"+ c #C6DCE8",
"@ c #D7E7EF",
"# c #B4CEE1",
"$ c #DCEAF0",
"% c #EDF5F8",
"& c #B0CBDE",
"* c #ABC7DC",
"= c #E7F1F5",
"- c #E1EDF3",
"; c #A6C3DA",
": c #F4F9FB",
"> c #A1BED7",
", c #FDFEFE",
"< c #99B8D3",
"1 c #8FAFCD",
/* pixels */
":,,:=$$o@-$--:=@ ..*#+O$=@$-@- +=,,%=o ::: o#",
"%=%,:$@ $$.O$-$$@  +o & $++ ,:@= =- .-@$$=- +",
"+=$-=$$= +OO#X+  %-@@@@o %%%-=%$$.X&*+O+   %%",
"XOX@@@%=@o$ *OO$:,%%-  o -=-@ :$@X**&;># $=%:",
"O**o =-$== o  $%=o=%-$   @..=oo@&+@@$.OXO-=@$",
"o+.X@=o. -oo+o@ XO.+$@oo  X;*$ OoXo@=Xo #X&@%",
"+oo++O@ X. =$..##;1X@ =$+#*;;O&X%ooXO$::oO*<&",
"$==@.#X$+.%,%-o+O*&;#=,,%@ o+;>& $:-==%,,:O;>",
"%%:@ o&+-::=,,@  @@.Xo==-@+ +O@@+%,,%+o-%:-oo",
"$@%@o  $= .@=-=@  @$ X. .o+ =  $ %= O= oo=,OO",
".@ @@-o@o>>;& @o %%@@@#X+Oo:,  @-.X;>.X +. .-",
"&& - ,@+.OX&X++-::=:= O.. %=%%@= #*&#*>X+$*%,",
"X;X %+o=$ @oo+o$=@$%+.@o % .--@o&.@+$.XXX+=..",
"@XO ..-+o@ .++.OXOOo$o ++X; OO@O Oo.@O.XX.Oo@",
".OX;>@o. . ::$O#;<1#$o$$OX&;<<&-%X.O.%%-##<;o",
"--oX&*o@@%%-%,% OX&;#@,,$.+O.;>Oo=@:%@ ,%.#<<",
":-:-+X$,%=$. =::  oO :@-%++  ++X ,:%-++-% +OX",
" @: @.X$@XX= oo@  @ooX&O... =.@=.@-.*-  oo+oo",
"+o,=o:@*>;#&#+.X ,% oX&##X ,,=+@-&*;X&;&ooo::",
"@+.@.o+OoX#;#X.-=-= @ o.O-%@%:+-.;#o#;*&.+%+o",
";Xo..X#+ +OOO#.-oO $o.o..-+X.o@X# O  XOXX++$-",
"<1# @o XXX+% &#&#&*.$= +O&>X>&$+X+X.@O-$&*;.-",
"&><*.o+% o%:,@X#&<<&+-,= &**>>;o@.%.#:,,$$&<<",
"X..#X %,:%o+::O+O&XX+-=,%.OXO&*Xoo%:%@$:,=&&;",
"@.o+Oo%-+X +o-$O.@$#.X&. $O.Oo@XO:=@ o. $%=.O",
", +% .*;;*&+++o+=%%$XXX*# O =Oo%-+O;;@++.o%XX",
"=,- @#;>>X&>OO+:,-o%-..O#O-::=@  *;>&*;#.X#=%",
"%@ $#*X@#&O*&+=-X $O=$XXO-: =:o$#&Oo&;;;&.--%",
"X.o.*O@. .&O&XoO**...oOX.o#Xo. XX@X+ *#*;. &&",
"1* .=-X&XXO+X&&;>1;$ X.OX**#<.oX-###X#@X**<&@",
"<><>&o.&& ,,=#&&&&><X $%O#&<<><# #OXX%=:O&<1<",
"O*#&X# :=-% %=XOOX#&& :%=OXO+>;&X$:::++::.X>>",
"OOo.*@-++#o$+$-XX#OOX*Xo++XXOOO# :$oO %oo.OX#",
": +++#**;;++.+oOX -..X**&.# %XXO++.*>@ o.#O:+",
":-.+@OXX>>>1;X.@@,%o$-&;*#@,%+.--*>;&<1>O.$%-",
"o$. <;XoO&**;*.=$.$=.#X&&@=.$%.O*&X+&>>;&%=.+",
";#@&.*;*.oX*;#.&*#*&.X OX+;..XXX;OX#@<;;>#;-%",
"1>;&-O.*>*+oO>;;*<1&.OX#;;;;1<& X>O><. o><<<;",
">11>*.@X.$,:=O&;<<<<<.::X*;1<11> +-O+:,:o#<11",
"*<&<*  %,:oo,=&XXX*>#@=%%X*#*;*>*:-,:.+-,=*>>",
"#;+XX@@-OX+o=-+#&&X;X+&#+.;&+*X;&%%.& X++:-;<",
":;;.***;<<##&XO;#% *;<&;<<*=:<*$OX#;1O*X*#$&#",
"$= ;>><>;11>#&>#%== .O>>& -=--oOX<1<*11*.O<=,",
"o=+@X<>**<<>**#@oO ..#>>X%$&==#+<;+X;1><*X@.X",
"**#O.+<*#>;><>#&>*&O#>#>;#;>##.&>o#&*<*<<;X&X"
};
