/* XPM */
static char * player_down_xpm[] = {
"45 45 249 2",
"  	c #F4F9FB",
". 	c #FDFEFE",
"+ 	c #E7F1F5",
"@ 	c #DCEAF0",
"# 	c #CBDFEA",
"$ 	c #D7E7EF",
"% 	c #E1EDF3",
"& 	c #D1E3EC",
"* 	c #C1D8E6",
"= 	c #ABC7DC",
"- 	c #B4CEE1",
"; 	c #C6DCE8",
"> 	c #BCD5E4",
", 	c #EDF5F8",
"' 	c #B0CBDE",
") 	c #B8D1E2",
"! 	c #545E7D",
"~ 	c #A6C3DA",
"{ 	c #A1BED7",
"] 	c #454D66",
"^ 	c #6C779C",
"/ 	c #7883A4",
"( 	c #7C86A7",
"_ 	c #828CAB",
": 	c #838DAB",
"< 	c #3C4359",
"[ 	c #616C90",
"} 	c #6E7A9E",
"| 	c #7C87A7",
"1 	c #8992AF",
"2 	c #9199B5",
"3 	c #252937",
"4 	c #4D5773",
"5 	c #5D688A",
"6 	c #7B86A6",
"7 	c #868FAD",
"8 	c #939CB7",
"9 	c #969EB8",
"0 	c #99B8D3",
"a 	c #464F69",
"b 	c #647094",
"c 	c #737EA1",
"d 	c #8D96B2",
"e 	c #3C4358",
"f 	c #4B5470",
"g 	c #586383",
"h 	c #687499",
"i 	c #7984A5",
"j 	c #808AA9",
"k 	c #8992B0",
"l 	c #929BB6",
"m 	c #40475F",
"n 	c #4B546F",
"o 	c #657297",
"p 	c #7F89A9",
"q 	c #383F53",
"r 	c #3E455C",
"s 	c #49526D",
"t 	c #525C7A",
"u 	c #677499",
"v 	c #6F7B9E",
"w 	c #8892AF",
"x 	c #3B4258",
"y 	c #424A63",
"z 	c #56607F",
"A 	c #858FAD",
"B 	c #363C50",
"C 	c #394055",
"D 	c #3D455B",
"E 	c #444C65",
"F 	c #505A77",
"G 	c #5E698B",
"H 	c #667398",
"I 	c #7681A3",
"J 	c #353C4F",
"K 	c #424A62",
"L 	c #47506A",
"M 	c #5A6586",
"N 	c #636F94",
"O 	c #667297",
"P 	c #3E465D",
"Q 	c #525B79",
"R 	c #566080",
"S 	c #5B6687",
"T 	c #40485F",
"U 	c #343A4D",
"V 	c #434A63",
"W 	c #B4BECD",
"X 	c #474F69",
"Y 	c #3A4157",
"Z 	c #E1EEF4",
"` 	c #414860",
" .	c #000B32",
"..	c #6C789C",
"+.	c #474F6A",
"@.	c #B7C5CD",
"#.	c #002459",
"$.	c #19325E",
"%.	c #00408D",
"&.	c #06327D",
"*.	c #001137",
"=.	c #D3DEE3",
"-.	c #313749",
";.	c #333A4C",
">.	c #7983A5",
",.	c #545E7C",
"'.	c #D0D3DE",
").	c #67CAF6",
"!.	c #D1F2FE",
"~.	c #0069AF",
"{.	c #000E3D",
"].	c #D3E1E9",
"^.	c #8FAFCD",
"/.	c #667298",
"(.	c #FCD3DB",
"_.	c #FFDEE9",
":.	c #00A1E6",
"<.	c #000000",
"[.	c #00A6F4",
"}.	c #1C2A50",
"|.	c #555F7E",
"1.	c #ECE6F1",
"2.	c #FED4DF",
"3.	c #FED0D5",
"4.	c #4970B8",
"5.	c #21A4EC",
"6.	c #2CACF1",
"7.	c #FFB75B",
"8.	c #171922",
"9.	c #E7D4E1",
"0.	c #FDD5E1",
"a.	c #FCDCE5",
"b.	c #F9D3DB",
"c.	c #0090E6",
"d.	c #61D0F7",
"e.	c #67CAF4",
"f.	c #40BFF7",
"g.	c #FFBC45",
"h.	c #FFD87F",
"i.	c #282D3B",
"j.	c #DFD4DF",
"k.	c #F2CCD7",
"l.	c #FEE5F1",
"m.	c #FAD7E0",
"n.	c #EC6C32",
"o.	c #FF963D",
"p.	c #FFC550",
"q.	c #CAC9D5",
"r.	c #D8CEDA",
"s.	c #F3DAE5",
"t.	c #FDDEE9",
"u.	c #FEE4EE",
"v.	c #FEFBFD",
"w.	c #FFFFFF",
"x.	c #FEFEFE",
"y.	c #EFF2F4",
"z.	c #CDDAE4",
"A.	c #B34F25",
"B.	c #FF8250",
"C.	c #FF8D48",
"D.	c #BAC6D1",
"E.	c #C4CAD5",
"F.	c #E4D4DE",
"G.	c #E2DFE6",
"H.	c #FBF2F5",
"I.	c #FDFDFE",
"J.	c #F9FAFB",
"K.	c #690308",
"L.	c #A9210E",
"M.	c #BEC9D4",
"N.	c #C1CCD6",
"O.	c #CFD7DF",
"P.	c #E3E8ED",
"Q.	c #F3F5F7",
"R.	c #F2F4F6",
"S.	c #C8D1DA",
"T.	c #D7DDE4",
"U.	c #F0F3F5",
"V.	c #F8F9FA",
"W.	c #FCFCFD",
"X.	c #FDFDFD",
"Y.	c #F5F7F9",
"Z.	c #F0F2F5",
"`.	c #E9EDF0",
" +	c #B4C1CD",
".+	c #C4CED8",
"++	c #D9E0E6",
"@+	c #E6EAEF",
"#+	c #EDF0F3",
"$+	c #F5F7F8",
"%+	c #F7F8FA",
"&+	c #F6F7F9",
"*+	c #F2F5F7",
"=+	c #ACBAC8",
"-+	c #B8C4D0",
";+	c #C5CFD9",
">+	c #CCD5DE",
",+	c #D5DCE3",
"'+	c #DEE4E9",
")+	c #DFE4EA",
"!+	c #EBEEF2",
"~+	c #A5B4C4",
"{+	c #B1BECB",
"]+	c #BBC6D2",
"^+	c #CCD4DD",
"/+	c #D2DAE1",
"(+	c #DCE2E8",
"_+	c #E1E6EB",
":+	c #95A7B9",
"<+	c #A2B2C2",
"[+	c #AEBBC9",
"}+	c #B7C3D0",
"|+	c #BFCAD5",
"1+	c #C7D0DA",
"2+	c #CBD4DD",
"3+	c #5E677A",
"4+	c #93A5B7",
"5+	c #A4B3C3",
"6+	c #B3C0CD",
"7+	c #BDC8D4",
"8+	c #BFC9D4",
"9+	c #C3CDD7",
"0+	c #6C7288",
"a+	c #97A8BA",
"b+	c #9DAEBE",
"c+	c #A6B5C4",
"d+	c #AAB8C7",
"e+	c #A9B8C6",
"f+	c #ABB9C7",
"g+	c #AEBCCA",
"h+	c #B2BFCC",
"i+	c #B3BFCC",
"j+	c #B7C3CF",
"k+	c #737B91",
"l+	c #96A5B6",
"m+	c #96A6B7",
"n+	c #98A7B9",
"o+	c #A3B3C2",
"p+	c #A7B6C5",
"q+	c #A8B7C6",
"r+	c #6F768C",
"s+	c #692416",
"t+	c #531608",
"u+	c #6F768B",
"v+	c #7A8499",
"w+	c #808BA0",
"x+	c #838EA3",
"y+	c #742A1C",
"z+	c #8B3527",
"  . .   + @ @ # $ % @ % %   + $ & * * = - ; > @ + $ @ % $ % & ; + . . , + # &       & # - ",
", + , .   @ $ & @ @ * > @ % @ @ $ & & ; # & ' & @ ; ; & .   $ + & + % & * % $ @ @ + % & ; ",
"; + @ % + @ @ + & ; > > - ) ; & & , % $ $ $ $ # & , , , % + , @ @ * ) ' = ; > ; & & & , , ",
") > ) $ $ $ , + $ # @ & = > > @   . ! ! ! ! ! ! ! ! ! % $ &   @ $ ) = = ' ~ { - & @ + ,   ",
"> = = # & + % @ + + & # & & @ , ] ] ^ / ( _ : _ ( / ^ ] ] # # $ ' ; $ $ @ * > ) > % + $ @ ",
"# ; * ) $ + # * & % # # ; # < < [ } | : 1 2 2 2 1 : | } [ < < > # ) # $ + ) # & - ) ' $ , ",
"; # # ; ; > $ & ) * & + @ 3 4 5 ^ 6 7 1 8 9 9 9 8 1 7 6 ^ 5 4 3 , # # ) > @     # > = 0 ' ",
"@ + + $ * - ) @ ; * , . 3 a ! b c _ 1 d 9 9 9 9 9 d 1 _ c b ! a 3 @   % + + , . .   > ~ { ",
", ,   $ & # ' ; %     3 e f g h i j k d l 9 9 9 l d k j i h g f e 3 . . , ; # % ,   % # # ",
"@ $ , $ # & & @ + & * 3 m n g o c p 1 7 d l l l d 7 1 p c o g n m 3 + & > + & # # + . > > ",
"* $ & $ $ % # $ # { 3 q r s t 5 u v | w 7 d d d 7 w | v u 5 t s r q 3 ~ { * ) & ; * & * % ",
"' ' & % & . $ ; * > 3 q x y s z 5 b v | : 7 A 7 : | v b 5 z s y x q 3 ' - = { ) ; @ = , . ",
") ~ ) & , ; # + @ 3 B B C D E s F g G H v I 6 I v H G g F s E D C B B 3 @ * ) ) ) ; + * * ",
"$ ) > & * * % ; # 3 J B B q r K L 4 z M N O h O N M z 4 L K r q B B J 3 $ > * ) ) * > # $ ",
"* > ) ~ { $ # * & 3 J B B B C x P ] n Q R S M S R Q n ] P x C B B B J 3 * , , % - - 0 ~ # ",
"% % # ) ' = # $ 3 T B B C U U U U U < V f Q Q Q f V < U U U U U C B B T 3 $ & . , * - 0 0 ",
"  %   % ; ) @ . 3 x q C U W W W W W U B D X s X D B U W W W W W U C q x 3 ; ; % , & ; > ) ",
"& $   & $ * ) @ 3 r Y U W Z Z Z Z Z W U J e ` e J U W Z Z Z Z Z W U Y r 3 % & & # # ; # # ",
"; # . + #   $ 3 t V U W Z Z  . . .Z Z W U B q B U W Z Z  . . .Z Z W U V t 3 ~ ' # # #     ",
"$ ; * $ * # 3 ..t +.U @.Z #.$.%.&.*.Z =.U -.;.-.U =.Z *.&.%.$.#.Z @.U +.t ..3 ' * ; , ; # ",
"~ ) # * * 3 >.b ,.s U '.Z #.).!.~.&.{.].W U U U W ].{.&.!.~.).#.Z '.U s ,.b >.3 ) ; ; @ % ",
"0 ^.- & 3 v /.z ! s U (._.#.:.<.<.[.}.].=.U B U =.].}.[.<.<.:.#._.(.U s ! z /.v 3 = ~ * % ",
"' { 0 3 h o |.T t U 1.2.3.4.5.<.!.6.4.].=.U 7.U =.].4.6.<.!.5.4.3.2.1.U t T |.o h 3 ' 0 0 ",
") * 3 5 5 ! T 8.f U 9.0.a.b.c.d.e.f.c.].=.g.h.g.=.].c.f.e.d.c.b.a.0.9.U f 8.T ! 5 5 3 ' ~ ",
"$ 3 5 ! T T 8.8.X i.j.k.l.m._.c.c.c.].].n.o.p.o.n.].].c.c.c._.m.l.k.j.i.X 8.8.T T ! 5 3 > ",
". 3 P P 8.8.= 8.E i.q.r.s.t.u.v.w.x.y.z.A.B.C.B.A.z.y.x.w.v.u.t.s.r.q.i.E 8.; 8.8.P P 3 ) ",
"+ . 8.8.$ - ~ 8.` i.D.E.F.G.H.w.x.I.J.y.z.K.L.K.z.y.J.I.x.w.H.G.F.E.D.i.` 8.~ - * 8.8.+ , ",
", $ & @ - = ) 8.e i.M.N.O.P.Q.. x.. I.J.R.z.z.z.R.J.I.. x.. Q.P.O.N.M.i.e 8.~ ~ ' * % % , ",
") * # * = > $ 8.;.i.M.S.T.P.U.V.W.. X.J.Y.Z.`.Z.Y.J.X.. W.V.U.P.T.S.M.i.;.8.- = ~ * & ' ' ",
"^.= & * + % ) ' i.i. +.+O.++@+#+U.$+%+%+&+*+#+*+&+%+%+$+U.#+@+++O..+ +i.i.- $ ) = = 0 ' $ ",
"0 { 0 { ' # * ' i.i.=+-+;+>+,+++'+)+P.@+`.#+!+#+`.@+P.)+'+++,+>+;+-+=+i.i., +   > ' 0 ^.0 ",
"> = - ' ) - &   + i.~+{+]+.+^+O./+,+T.++(+_+P._+(+++T.,+/+O.^+.+]+{+~+i.  ; ;     * ) { { ",
"> > # * = $ % ; ; i.:+<+[+}+|+;+1+2+>+O.O.,+,+,+O.O.>+2+1+;+|+}+[+<+:+i.> & , # # * > ) - ",
"  & ; ; ; - = = ~ ~ 3+4+5+[+{+6+ + +]+7+8+9+;+9+8+7+]+ + +6+{+[+5+4+3+= { $ & # * - >   ; ",
"  % * ; $ > ) ) { { { 0+a+b+c+d+e+d+f+g+h+i+j+i+h+g+f+d+e+d+c+b+a+0+{ ~ ' 0 ^.{ > * @ , % ",
"# @ * & 0 ~ ) # > ' = = 0+k+l+m+n+b+o+<+p+q+c+q+p+<+o+b+n+m+l+r+0+' ) ; ' { { ~ ' , + * ; ",
"~ - $ ' * = ~ = * # ) = s+t+u+r+k+k+v+w+x+x+x+x+x+w+v+k+k+r+u+t+s+> ) - $ 0 ~ ~ { - ~ % , ",
"^.{ ~ ' % > * = { = ; s+s+y+y+s+t+0 ^.' * > ) - ~ ~ ~ ~ t+s+y+y+s+s+> { 0 * & # { 0 0 0 ~ ",
"{ ^.^.{ = * $ ) * @ .   y+z+z+y+0 0 0 0 0 *     ) = ~ ^.0 y+z+z+y+; % > ;   .   # - 0 ^.^.",
"= 0 ' 0 = & & , .   # # . + ' ) ) ) = { - $ + , , ) = - = ~ = { =   % .   * ; % . + = { { ",
"- ~ ; ) ) $ $ % > ) ; # + % ; - ' ' ) ~ ) ; ' - ; * ~ ' ; = ) ~ ' , , * ' & ) ; ;   % ~ 0 ",
"  ~ ~ * = = = ~ 0 0 - - ' ) > ~ - , & = ~ 0 ' ~ 0 0 = +   0 = @ > ) - ~ ^.> = ) = - @ ' - ",
"@ + & ~ { { 0 { ~ ^.^.{ - ' { - , + + & * > { { ' & % + % % # > ) 0 ^.0 = ^.^.= * > 0 + . ",
"# + ; $ ) 0 { = = 0 0 { = = - $ # > & * * - { { ) , @ ' + + - ; 0 ~ ; ) ~ ^.{ 0 = ) $ * ) ",
"= = - > * ; 0 = - { ~ { 0 { - ' { = ' > - { - { ~ - ~ { - - * ' { # - ' = 0 = 0 0 ~ ) ' ) "};
