/* XPM */
static char * player_right_xpm[] = {
"45 45 177 2",
"  	c #F4F9FB",
". 	c #FDFEFE",
"+ 	c #E7F1F5",
"@ 	c #DCEAF0",
"# 	c #CBDFEA",
"$ 	c #D7E7EF",
"% 	c #E1EDF3",
"& 	c #D1E3EC",
"* 	c #C1D8E6",
"= 	c #ABC7DC",
"- 	c #B4CEE1",
"; 	c #C6DCE8",
"> 	c #BCD5E4",
", 	c #EDF5F8",
"' 	c #B0CBDE",
") 	c #B8D1E2",
"! 	c #A6C3DA",
"~ 	c #A1BED7",
"{ 	c #191C2E",
"] 	c #232735",
"^ 	c #272C3A",
"/ 	c #2E3344",
"( 	c #383F54",
"_ 	c #434A63",
": 	c #48516B",
"< 	c #586283",
"[ 	c #12141B",
"} 	c #4B546F",
"| 	c #525C7A",
"1 	c #5A6586",
"2 	c #616D91",
"3 	c #6C779C",
"4 	c #7580A2",
"5 	c #7F8AA9",
"6 	c #858FAD",
"7 	c #5D688B",
"8 	c #394055",
"9 	c #3E455C",
"0 	c #47506A",
"a 	c #49526D",
"b 	c #525B79",
"c 	c #576282",
"d 	c #68749A",
"e 	c #7882A4",
"f 	c #8892AF",
"g 	c #9099B4",
"h 	c #99B8D3",
"i 	c #313749",
"j 	c #353C4F",
"k 	c #3C4358",
"l 	c #4D5773",
"m 	c #505A77",
"n 	c #5F6A8D",
"o 	c #6C789C",
"p 	c #7A85A6",
"q 	c #808AA9",
"r 	c #8992B0",
"s 	c #969EB8",
"t 	c #2F3446",
"u 	c #333A4C",
"v 	c #363C50",
"w 	c #596384",
"x 	c #667297",
"y 	c #6B779C",
"z 	c #3B4258",
"A 	c #939CB7",
"B 	c #2D3242",
"C 	c #4F5976",
"D 	c #56607F",
"E 	c #5B6688",
"F 	c #727DA0",
"G 	c #343A4D",
"H 	c #3D455B",
"I 	c #40485F",
"J 	c #474F69",
"K 	c #4B5470",
"L 	c #545E7D",
"M 	c #667298",
"N 	c #5C6788",
"O 	c #2A2F3F",
"P 	c #2B303F",
"Q 	c #444C65",
"R 	c #2B3040",
"S 	c #383F53",
"T 	c #B4BFCD",
"U 	c #40475F",
"V 	c #CDD8E1",
"W 	c #E3F1F9",
"X 	c #F0F3F5",
"Y 	c #D9E0E6",
"Z 	c #E1EEF4",
"` 	c #082467",
" .	c #0B1632",
"..	c #242836",
"+.	c #001C59",
"@.	c #007FD3",
"#.	c #005BA6",
"$.	c #8FAFCD",
"%.	c #282C3B",
"&.	c #20232F",
"*.	c #37BFF4",
"=.	c #000000",
"-.	c #E1D8DE",
";.	c #B76F4B",
">.	c #FFD372",
",.	c #262A38",
"'.	c #1B1D27",
").	c #FBEFF4",
"!.	c #0EA4E6",
"~.	c #43BAF1",
"{.	c #D1F2FE",
"].	c #E1D3D8",
"^.	c #F08649",
"/.	c #FF8D48",
"(.	c #FFAF45",
"_.	c #FDDBE5",
":.	c #0090E6",
"<.	c #69CDF4",
"[.	c #D3A69B",
"}.	c #EC7748",
"|.	c #DD692E",
"1.	c #FFD5E1",
"2.	c #FFE3EE",
"3.	c #DFE4EA",
"4.	c #A9210E",
"5.	c #BC745B",
"6.	c #EC6C32",
"7.	c #B34F25",
"8.	c #747FA1",
"9.	c #FFD3DE",
"0.	c #E9EDF0",
"a.	c #690308",
"b.	c #D3DAE1",
"c.	c #F9D8E2",
"d.	c #FFECF0",
"e.	c #F9FAFB",
"f.	c #B8C4D0",
"g.	c #212532",
"h.	c #677499",
"i.	c #BDC8D3",
"j.	c #CDD5DD",
"k.	c #E3E8ED",
"l.	c #F7F8FA",
"m.	c #F6F7F9",
"n.	c #1B1E28",
"o.	c #AAB8C7",
"p.	c #BDC8D4",
"q.	c #CAD3DC",
"r.	c #B0BDCB",
"s.	c #AFBCCA",
"t.	c #C1CCD6",
"u.	c #C8D1DA",
"v.	c #D7DEE5",
"w.	c #DCE2E8",
"x.	c #A2B2C2",
"y.	c #97A8BA",
"z.	c #9DAEBE",
"A.	c #A5B4C4",
"B.	c #B3C0CD",
"C.	c #C5CFD9",
"D.	c #1F222E",
"E.	c #8B9FB2",
"F.	c #8DA0B4",
"G.	c #95A7B9",
"H.	c #A8B7C6",
"I.	c #B4C0CD",
"J.	c #879BB0",
"K.	c #92A4B7",
"L.	c #9AABBC",
"M.	c #8CA0B3",
"N.	c #7F95AB",
"O.	c #7289A2",
"P.	c #869BAF",
"Q.	c #692416",
"R.	c #531608",
"S.	c #742A1C",
"T.	c #8B3527",
"  . .   + @ @ # $ % @ % %   + $ & * * = - ; > @ + $ @ % $ % & ; + . . , + # &       & # - ",
", + , .   @ $ & @ @ * > @ % @ @ $ & & ; # & ' & @ ; ; & .   $ + & + % & * % $ @ @ + % & ; ",
"; + @ % + @ @ + & ; > > - ) ; & & , % $ $ $ $ # & , , , % + , @ @ * ) ' = ; > ; & & & , , ",
") > ) $ $ $ , + $ # @ & = > > @   . , , % & & # & % + % $ &   @ $ ) = = ' ! ~ - & @ + ,   ",
"> = = # & + % @ + + & # & & @ , + # + , { ] ^ / ( ( _ : < # # $ ' ; $ $ @ * > ) > % + $ @ ",
"# ; * ) $ + # * & % # # ; # $ & ) > [ [ _ } | 1 2 3 4 5 6 < 7 > # ) # $ + ) # & - ) ' $ , ",
"; # # ; ; > $ & ) * & + @ * * - [ [ 8 9 _ 0 a b c 7 d e 5 f g 7 2 # # ) > @     # > = h ' ",
"@ + + $ * - ) @ ; * , . , % # [ i j 8 k 9 _ 0 l m < n o p q r s s 2   % + + , . .   > ! ~ ",
", ,   $ & # ' ; %     + . . [ t i u v v 8 9 _ 0 l m w x o e q g s s y . , ; # % ,   % # # ",
"@ $ , $ # & & @ + & * $ + [ t t i i i u v 8 z 9 _ a m < n 3 4 5 f g A y > + & # # + . > > ",
"* $ & $ $ % # $ # ~ ~ ! [ B B t t i i i u v v 8 9 9 _ C D E x d F q f y ~ * ) & ; * & * % ",
"' ' & % & . $ ; * > ) [ B B B t t i t t i G v 8 k H I J K L c < n 3 e e y = ~ ) ; @ = , . ",
") ! ) & , ; # + @ & $ [ B B B B B B t t i u j v 8 8 k 9 _ 0 K l | 1 2 M N * ) ) ) ; + * * ",
"$ ) > & * * % ; # $ [ B B B O P B i t t u u G v v v 8 8 k 9 _ Q 0 K | < _ > * ) ) * > # $ ",
"* > ) ! ~ $ # * & * [ t B B B R t i i u u j u v v v v v v 8 S H 9 _ 0 K S , , % - - h ! # ",
"% % # ) ' = # $ $ [ t B B B B B t i u j v v v j v v v v v v G i G G G u k i & . , * - h h ",
"  %   % ; ) @ . , [ t B B B B t i u v v 8 8 8 8 8 v v v v v G G T T T G Q t ; % , & ; > ) ",
"& $   & $ * ) @ [ u i B B B B t u v 8 k k U 9 z k 8 S v v v G T V W W T G G & & # # ; # # ",
"; # . + #   $ = [ u t B B B R u v k _ Q Q J Q _ _ k 8 S v G G V W X X X T G ! ' # # #     ",
"$ ; * $ * # ; > [ u i B R B P B 8 _ 0 a a m C K 0 9 k 8 v G Y Z X Z `  .X G = ' * ; , ; # ",
"! ) # * * ) - [ u i i B O O B ..9 Q K l m | | m l J 9 k 8 G Y Z Z +.@.#.X G > ) ) ; ; @ % ",
"h $.- & $ # & [ u i B O O %.&.z _ K m D < 1 1 < l a J _ k G Y Z Z +.*.=.-.;.>.@ ' = ! * % ",
"' ~ h = * # ; [ u i B P %.,.'.k a < w 7 2 x n c m l a J 9 G Y Z ).!.~.{.].^./.(.@ @ ' h h ",
") * * - ) & , [ u i B %.,.'...H K < 2 d o 3 M 7 | C l a Q G Y )._.:.<.:.[.}.^./.|.+ ' ' ! ",
"$ * # ; > # , [ u t B O ,.'.t U l 1 x d F F d n c L | K 0 B Y 1.1.2.:.3.4.5.6.7.@ , + * > ",
". & ; , & * = [ u i P %...'.u U C 1 2 d F 8.M 1 b L | K 0 B Y 9.2.1.X . 0.4.a.; * # , ) ) ",
"+ . % & $ - ! [ u B O %.,.[ u U a 1 x d o d L < U a l a _ ..b.1.c.d.. . e.f.! - * ) - + , ",
", $ & @ - = ) [ i B O ,.g.[ u U a 1 2 x h.L a O i 9 Q 0 Q ..i.j.Y 0.. . . f.! ! ' * % % , ",
") * # * = > $ [ i O %.,.g.[ O U a D w 7 L a O ] v k _ Q _ ..i.f.b.k.X l.m.f.- = ! * & ' ' ",
"$.= & * + % [ i / O ,...g.[ O u U a m L a O n./ j ( 9 9 ..o.i.p.q.Y k.0.0.r.$ ) = = h ' $ ",
"h ~ h ~ ' # [ i / %.....g.g.[ O u U a a O [ O i G v z 8 ..s.f.t.u.b.v.w.Y r.+   > ' h $.h ",
"> = - ' ) - [ / %.%...g.g.g.g.[ O O O [ [ O t i u u G ..x.x.s.f.t.q.j.b.r.; ;     * ) ~ ~ ",
"> > # * = [ i / %...g.g.g.g.g.g.[ [ [ g...P B t i i t ..y.z.A.B.f.t.u.C.A.& , # # * > ) - ",
"  & ; ; ; [ / %...g.g.D.D.g.g.g.g.g.g.g...,.O B t t ..E.F.G.z.H.s.I.r.x.~ $ & # * - >   ; ",
"  % * ; $ > [ [ [ [ [ [ D.D.D.D.g.g.g.g.g...,.O B t ..J.F.K.L.x.o.o.M.=.' h $.~ > * @ , % ",
"# @ * & h ! ) # > ' = =.[ [ D.D.D.D.g.g.g.g...,.O B ..E.E.K.L.z.x.N.=.=.=.=.~ ! ' , + * ; ",
"! - $ ' * = ! = * # ) =.=.=.[ [ [ g.D.D.g.g.g.......O.P.E.K.L.N.N.=.=.=.=.=.! ! ~ - ! % , ",
"$.~ ! ' % > * = ~ = ; =.=.=.=.=.=.[ [ [ [ [ Q.R.R.O.O.O.O.O.O.=.=.=.=.=.=.=.& # ~ h h h ! ",
"~ $.$.~ = * $ ) * @ .   + =.=.=.=.=.=.=.=.Q.Q.S.S.S.Q.R.=.=.=.=.=.=.=.=.;   .   # - h $.$.",
"= h ' h = & & , .   # # . + ' =.=.=.=.=.=.=.S.T.T.T.S.=.=.=.=.=.=.=.% .   * ; % . + = ~ ~ ",
"- ! ; ) ) $ $ % > ) ; # + % ; - ' ' ) ! ) ; ' - =.* ! ' ; = ) ! ' , , * ' & ) ; ;   % ! h ",
"  ! ! * = = = ! h h - - ' ) > ! - , & = ! h ' ! h h = +   h = @ > ) - ! $.> = ) = - @ ' - ",
"@ + & ! ~ ~ h ~ ! $.$.~ - ' ~ - , + + & * > ~ ~ ' & % + % % # > ) h $.h = $.$.= * > h + . ",
"# + ; $ ) h ~ = = h h ~ = = - $ # > & * * - ~ ~ ) , @ ' + + - ; h ! ; ) ! $.~ h = ) $ * ) ",
"= = - > * ; h = - ~ ! ~ h ~ - ' ~ = ' > - ~ - ~ ! - ! ~ - - * ' ~ # - ' = h = h h ! ) ' ) "};
