/* XPM */
static char * player_up_xpm[] = {
"45 45 34 1",
" 	c #F4F9FB",
".	c #FDFEFE",
"+	c #E7F1F5",
"@	c #DCEAF0",
"#	c #CBDFEA",
"$	c #D7E7EF",
"%	c #E1EDF3",
"&	c #D1E3EC",
"*	c #C1D8E6",
"=	c #ABC7DC",
"-	c #B4CEE1",
";	c #C6DCE8",
">	c #BCD5E4",
",	c #EDF5F8",
"'	c #B0CBDE",
")	c #B8D1E2",
"!	c #A6C3DA",
"~	c #A1BED7",
"{	c #2F3547",
"]	c #363D51",
"^	c #3F465E",
"/	c #99B8D3",
"(	c #282D3D",
"_	c #4A526E",
":	c #1F2332",
"<	c #3A4156",
"[	c #171B28",
"}	c #33394C",
"|	c #131521",
"1	c #2D3242",
"2	c #8FAFCD",
"3	c #53241B",
"4	c #752E22",
"5	c #853B33",
" .. +@@#$%@%% +$&**=-;>@+$@%$%&;+..,+#&   &#-",
",+,. @$&@@*>@%@@$&&;#&'&@;;&. $+&+%&*%$@@+%&;",
";+@%+@@+&;>>-);&&,%$$$$#&,,,%+,@@*)'=;>;&&&,,",
")>)$$$,+$#@&=>>@ .,,%&&#&%+%$& @$)=='!~-&@+, ",
">==#&+%@++&#&&@,+#+,%@&&&$**+##$';$$@*>)>%+$@",
"#;*)$+#*&%##;#$&)>*;@$##&&)!=@&>#)#$+)#&-)'$,",
";##;;>$&)*&+@**--!{]^^^^^]{!!>'),##)>@  #>=/'",
"@++$*-)@;*,.,%#;(]_________](!~'&@ %++,.. >!~",
",, $&#';%  +..:{<^^^^^^^^^^^<{:$;,..,;#%, %##",
"@$,$#&&@+&*$+[}<<]]<<]]]<<]]<<}[&,+&>+&##+.>>",
"*$&$$%#$#~~!|(}}}}}}}}}}}}}}}}}(|*)!~*)&;*&*%",
"''&%&.$;*>)':}{{{{}{{{{{{{}{{{{}:-='-=~);@=,.",
")!)&,;#+@&$|({{{{{{{{{{{{{{{{{{{(|$;@*)));+**",
"$)>&**%;#$&:{{{{1{{{{{{{{{{{1{{{{:#*$>*))*>#$",
"*>)!~$#*&*&:111111{{{{{{{{{111111:*>*,,%--/!#",
"%%#)'=#$$,|((11111{{{{{{{{{11111((| ,$&.,*-//",
" % %;)@.,+:11111111{{{{{{{11111111:,%;;%,&;>)",
"&$ &$*)@$):11111111{{{{{{{11111111:*=%&&##;##",
";#.+# $=~[(1111111{{{{{{{{{1111111([)'!'###  ",
"$;*$*#;>#:111111{{{{{}}}{{{{{111111:-!='*;,;#",
"!)#**)-;[(11111{{{{{}}}}}{{{{{11111([)>));;@%",
"/2-&$#&:](111{{{{{}}]]]]]}}{{{{{111(]:%@'=!*%",
"'~/=*#:^1(111{{{}}}]]]]]]]}}}{{{111(1^:.@@'//",
")**-):^1:(11{{{{}]]]]<<<]]]]}{{{{11(:1^:.+''!",
"$*#;:<{::(1{{{}}]]<<<<<<<<<]]}}{{{1(::{<:,+*>",
".&;[}(:::(1{{}}]]<<<<<<<<<<<]]}}{{1(:::(}[,))",
"+.|(:[[[((1{}}]]<<<<^^^^^<<<<]]}}{1(([[[:(|+,",
",|::[|)|:(1{}}]]<<<^^^^^^^<<<]]}}{1(:|!|[::|,",
")*[[=>$*[11{}}]<<<<^^^^^^^<<<<]}}{11[=-=![[''",
"2=&*+%)'[11{}}]<<<^^^^^^^^^<<<]}}{11[-$)==/'$",
"/~/~'#*'[(1{{}]<}<^^^^^^^^^<}<]}{{1([,+ >'/2/",
">=-')-& [(1{{}]<(}^<^^_^^<^}(<]}{{1([;;  *)~~",
">>#*=$%;;:(1{}]<({<^^^^_^^<{(<]}{1(:>&,##*>)-",
" &;;;-==![(({}}]}(}<^^^^^<}(}]}}{(([~$&#*-> ;",
" %*;$>))~~:((1{}]:1<<^^^<<{:]}{1((:!'/2~>*@,%",
"#@*&/!)#>'=|:(1{{1[{<<<<<{[1{{1(:|);'~~!',+*;",
"!-$'*=!=*#)=!||:11([{}}}{[(11:||!>)-$/!!~-!%,",
"2~!'%>*=~=;#|33[|||||||||||||[33|~>~/*&#~///!",
"~22~=*$)*@. +344333//*  )=333443&;%>; . #-/22",
"=/'/=&&,. ##.+3544=~-$+,,)=4453~= %. *;%.+=~~",
"-!;))$$%>);#+%;-'')!);'-;*!';=)!',,*'&);; %!/",
" !!*===!//--')>!-,&=!/'!//=+ /=@>)-!2>=)=-@'-",
"@+&!~~/~!22~-'~-,++&*>~~'&%+%%#>)/2/=22=*>/+.",
"#+;$)/~==//~==-$#>&**-~~),@'++-;/!;)!2~/=)$*)",
"==->*;/=-~!~/~-'~='>-~-~!-!~--*'~#-'=/=//!)')"};
