/* XPM */
static char * player_left_xpm[] = {
"45 45 274 2",
"  	c #F4F9FB",
". 	c #FDFEFE",
"+ 	c #E7F1F5",
"@ 	c #DCEAF0",
"# 	c #CBDFEA",
"$ 	c #D7E7EF",
"% 	c #E1EDF3",
"& 	c #D1E3EC",
"* 	c #C1D8E6",
"= 	c #ABC7DC",
"- 	c #B4CEE1",
"; 	c #C6DCE8",
"> 	c #BCD5E4",
", 	c #EDF5F8",
"' 	c #B0CBDE",
") 	c #B8D1E2",
"! 	c #A6C3DA",
"~ 	c #A1BED7",
"{ 	c #586283",
"] 	c #48516B",
"^ 	c #414961",
"/ 	c #383F54",
"( 	c #2E3344",
"_ 	c #272C3A",
": 	c #232735",
"< 	c #191C2E",
"[ 	c #5D688B",
"} 	c #858FAD",
"| 	c #7F89A9",
"1 	c #7580A2",
"2 	c #6C779C",
"3 	c #616D91",
"4 	c #5A6586",
"5 	c #525C7A",
"6 	c #4B546F",
"7 	c #434A63",
"8 	c #12141B",
"9 	c #626E92",
"0 	c #9099B4",
"a 	c #8892AF",
"b 	c #7F8AA9",
"c 	c #7882A4",
"d 	c #68749A",
"e 	c #576282",
"f 	c #525B79",
"g 	c #49526D",
"h 	c #47506A",
"i 	c #424A62",
"j 	c #3E455C",
"k 	c #394055",
"l 	c #99B8D3",
"m 	c #969EB8",
"n 	c #8992B0",
"o 	c #808AA9",
"p 	c #7A85A6",
"q 	c #6C789C",
"r 	c #5F6A8D",
"s 	c #505A77",
"t 	c #4D5773",
"u 	c #424A63",
"v 	c #3C4358",
"w 	c #353C4F",
"x 	c #313749",
"y 	c #6B779C",
"z 	c #959EB8",
"A 	c #7983A5",
"B 	c #6F7B9E",
"C 	c #667297",
"D 	c #596384",
"E 	c #4E5773",
"F 	c #363C50",
"G 	c #333A4C",
"H 	c #2F3446",
"I 	c #939CB7",
"J 	c #8992AF",
"K 	c #586383",
"L 	c #505977",
"M 	c #3B4258",
"N 	c #33394C",
"O 	c #303648",
"P 	c #2F3445",
"Q 	c #737EA1",
"R 	c #687499",
"S 	c #647094",
"T 	c #5B6688",
"U 	c #56607F",
"V 	c #4F5976",
"W 	c #3F465D",
"X 	c #3A4156",
"Y 	c #363D51",
"Z 	c #2D3243",
"` 	c #2D3242",
" .	c #545E7D",
"..	c #4B5470",
"+.	c #474F69",
"@.	c #40485F",
"#.	c #3D455B",
"$.	c #343A4D",
"%.	c #5C6788",
"&.	c #667398",
"*.	c #5B6687",
"=.	c #2C3242",
"-.	c #434B63",
";.	c #444C65",
">.	c #414860",
",.	c #373E52",
"'.	c #353B4F",
").	c #2B303F",
"!.	c #2A2F3F",
"~.	c #383E53",
"{.	c #3E465D",
"].	c #383F53",
"^.	c #2B3040",
"/.	c #2E3444",
"(.	c #3C4359",
"_.	c #2E3445",
":.	c #454D67",
"<.	c #B4BFCD",
"[.	c #3B4257",
"}.	c #E3F1F9",
"|.	c #CDD8E1",
"1.	c #40475F",
"2.	c #373D52",
"3.	c #F0F3F5",
"4.	c #424962",
"5.	c #454D66",
"6.	c #0B1632",
"7.	c #082467",
"8.	c #E1EEF4",
"9.	c #D9E0E6",
"0.	c #4A536E",
"a.	c #49526C",
"b.	c #2C3141",
"c.	c #005BA6",
"d.	c #007FD3",
"e.	c #001C59",
"f.	c #4D5672",
"g.	c #535D7B",
"h.	c #252937",
"i.	c #2A2F3E",
"j.	c #8FAFCD",
"k.	c #FFD372",
"l.	c #B76F4B",
"m.	c #E1D8DE",
"n.	c #000000",
"o.	c #37BFF4",
"p.	c #20232F",
"q.	c #282C3B",
"r.	c #282D3C",
"s.	c #FFAF45",
"t.	c #FF8D48",
"u.	c #F08649",
"v.	c #E1D3D8",
"w.	c #D1F2FE",
"x.	c #43BAF1",
"y.	c #0EA4E6",
"z.	c #FBEFF4",
"A.	c #566080",
"B.	c #657297",
"C.	c #5D688A",
"D.	c #1B1D27",
"E.	c #262A38",
"F.	c #DD692E",
"G.	c #EC7748",
"H.	c #D3A69B",
"I.	c #0090E6",
"J.	c #69CDF4",
"K.	c #FDDBE5",
"L.	c #667298",
"M.	c #6E7A9E",
"N.	c #B34F25",
"O.	c #EC6C32",
"P.	c #BC745B",
"Q.	c #A9210E",
"R.	c #DFE4EA",
"S.	c #FFE3EE",
"T.	c #FFD7E3",
"U.	c #FFD5E1",
"V.	c #566180",
"W.	c #727DA0",
"X.	c #727EA0",
"Y.	c #6B779B",
"Z.	c #657197",
"`.	c #690308",
" +	c #EBEFF2",
".+	c #FEFEFE",
"++	c #FFD6E2",
"@+	c #FFD3DE",
"#+	c #677399",
"$+	c #747FA1",
"%+	c #636F93",
"&+	c #252A37",
"*+	c #B9C5D1",
"=+	c #F9FAFB",
"-+	c #FFFFFF",
";+	c #FFECF0",
">+	c #F9D8E2",
",+	c #FCD7E2",
"'+	c #D3DAE1",
")+	c #242836",
"!+	c #4A536F",
"~+	c #FDFDFD",
"{+	c #FDFDFE",
"]+	c #E8ECF0",
"^+	c #DAE0E7",
"/+	c #CDD5DD",
"(+	c #BDC8D3",
"_+	c #677499",
":+	c #616D90",
"<+	c #222633",
"[+	c #F6F7F9",
"}+	c #F7F8FA",
"|+	c #E3E8ED",
"1+	c #D1D9E0",
"2+	c #B8C4D0",
"3+	c #232734",
"4+	c #222632",
"5+	c #B1BECB",
"6+	c #E9EDF0",
"7+	c #EBEEF2",
"8+	c #DBE1E7",
"9+	c #CAD3DC",
"0+	c #BDC8D4",
"a+	c #AAB8C7",
"b+	c #393F54",
"c+	c #1B1E28",
"d+	c #212532",
"e+	c #DCE2E8",
"f+	c #D7DEE5",
"g+	c #D1D9E1",
"h+	c #C8D1DA",
"i+	c #C1CCD6",
"j+	c #AEBCC9",
"k+	c #242835",
"l+	c #D2D9E1",
"m+	c #CFD7DF",
"n+	c #C2CCD7",
"o+	c #AFBCCA",
"p+	c #A2B2C2",
"q+	c #A2B1C1",
"r+	c #A6B5C4",
"s+	c #C5CFD9",
"t+	c #C2CCD6",
"u+	c #BBC6D2",
"v+	c #B3C0CD",
"w+	c #A5B4C4",
"x+	c #9DADBE",
"y+	c #97A8BA",
"z+	c #202430",
"A+	c #A0B0C0",
"B+	c #B0BDCB",
"C+	c #B4C0CD",
"D+	c #A8B7C6",
"E+	c #9DAEBE",
"F+	c #95A7B9",
"G+	c #8EA1B4",
"H+	c #8B9FB2",
"I+	c #1F222E",
"J+	c #8CA0B3",
"K+	c #ABB9C7",
"L+	c #9AABBC",
"M+	c #92A4B7",
"N+	c #8DA0B4",
"O+	c #879BB0",
"P+	c #7F95AB",
"Q+	c #889CB1",
"R+	c #8A9EB2",
"S+	c #869BAF",
"T+	c #7088A0",
"U+	c #7289A2",
"V+	c #531608",
"W+	c #692416",
"X+	c #742A1C",
"Y+	c #8B3527",
"  . .   + @ @ # $ % @ % %   + $ & * * = - ; > @ + $ @ % $ % & ; + . . , + # &       & # - ",
", + , .   @ $ & @ @ * > @ % @ @ $ & & ; # & ' & @ ; ; & .   $ + & + % & * % $ @ @ + % & ; ",
"; + @ % + @ @ + & ; > > - ) ; & & , % $ $ $ $ # & , , , % + , @ @ * ) ' = ; > ; & & & , , ",
") > ) $ $ $ , + $ # @ & = > > @   . , , % & & # & % + % $ &   @ $ ) = = ' ! ~ - & @ + ,   ",
"> = = # & + % @ + + & # & & @ , + { ] ^ / / ( _ : < * * + # # $ ' ; $ $ @ * > ) > % + $ @ ",
"# ; * ) $ + # * & % # # ; # $ [ { } | 1 2 3 4 5 6 7 8 8 = @ & > # ) # $ + ) # & - ) ' $ , ",
"; # # ; ; > $ & ) * & + @ 9 [ 0 a b c d [ e f g h i j k 8 8 ' ) , # # ) > @     # > = l ' ",
"@ + + $ * - ) @ ; * , . 9 m m n o p q r { s t h u j v k w x 8 ' & @   % + + , . .   > ! ~ ",
", ,   $ & # ' ; %     y m z 0 o A B C D s E h 7 j k F F G x H 8 ; , . . , ; # % ,   % # # ",
"@ $ , $ # & & @ + & y I 0 J | 1 2 r K L g u j M k F N x x O H P 8 , + & > + & # # + . > > ",
"* $ & $ $ % # $ # ~ y J o Q R S T U V 7 W j X Y F N x O O H H Z ` 8 ) ! ~ * ) & ; * & * % ",
"' ' & % & . $ ; * y A A 2 r K e  ...+.@.#.v k F $.x P H O P P ` ` Z 8 ' - = ~ ) ; @ = , . ",
") ! ) & , ; # + @ %.&.3 *.5 t ..h u j v k k F w N O H P Z Z ` Z =.` 8 ; @ * ) ) ) ; + * * ",
"$ ) > & * * % ; # -.K 5 ..h ;.>.j v k k ,.F F '.G N H P O Z ).!.` ` Z 8 $ > * ) ) * > # $ ",
"* > ) ! ~ $ # * & ~...h i {.#.].k Y F F F F F G w N N x O P ^.Z ` ` /.8 * , , % - - l ! # ",
"% % # ) ' = # $ O (.N $.$.$.x $.F F F F F F w F F F w N x H Z Z Z ` ` H 8 $ & . , * - l l ",
"  %   % ; ) @ . _.:.$.<.<.<.$.$.F F F F F k [.k [.k ,.F N x H ` ` ` Z P 8 ; ; % , & ; > ) ",
"& $   & $ * ) @ $.$.<.}.}.|.<.$.F F F ].[.v M {.1.(.(.X 2.G P ` ` ` ` O G 8 & & # # ; # # ",
"; # . + #   $ = $.<.3.3.3.}.|.$.$.F ].k v 4.u 5.+.5.;.>.v ,.G ^.Z ` Z P G 8 ! ' # # #     ",
"$ ; * $ * # ; > $.3.6.7.8.3.8.9.$.Y k (.{.h ..V L 0.a.h u k b.).` ^.Z O G 8 = ' * ; , ; # ",
"! ) # * * ) - ; $.3.c.d.e.8.8.9.$.k v {.+.f.s g.g.s E ..5.j h.=.i.i.` O x G 8 ) ) ; ; @ % ",
"l j.- & $ # & k.l.m.n.o.e.8.8.9.$.(.>.+.g t K *.4 K U L ..7 M p.q.r.i.Z x G 8 @ ' = ! * % ",
"' ~ l = * # s.t.u.v.w.x.y.z.8.9.$.j +.g f.s A.r B.3 C.D K g (.D.E.q.).` O G 8 . @ @ ' l l ",
") * * - ) F.t.u.G.H.I.J.I.K.z.9.$.;.g t V 5 C.L.2 M.R 3 K ..#.h.D.E.q.Z O G 8   . + ' ' ! ",
"$ * # ; > # N.O.P.Q.R.I.S.T.U.9.Z h ..5  .V.r R W.X.Y.Z.4 t 1.H D.E.r.` H G 8 & @ , + * > ",
". & ; , & * = `.Q. +.+3.++S.@+9.Z h ..5  .f *.#+$+W.R %+*.V 1.G D.&+q.).O G 8 ; * # , ) ) ",
"+ . % & $ - ! ~ *+=+. -+;+>+,+'+)+u g f.!+1.{  .Y.B R B.*.g 1.N 8 E.q.i.Z N 8 - * ) - + , ",
", $ & @ - = ) $ *+~+. {+]+^+/+(+)+5.h 5.W x r.g  ._+C :+*.g 1.N 8 <+E.r.` O 8 ! ' * % % , ",
") * # * = > $ * *+[+}+3.|+1+2+(+)+>.5.u (.F 3+r.g  .C.D U g 1.r.8 4+E.q.r.x 8 = ! * & ' ' ",
"j.= & * + % ) ' 5+6+7+|+8+9+0+(+a+)+W {.b+w ( c+r.g  .s g 1.N r.8 d+)+E.r.( x 8 = = l ' $ ",
"l ~ l ~ ' # * ' 5+9.e+f+g+h+i+2+j+)+X M F $.O i.8 r.g g 1.N r.8 d+d+k+&+q.( x 8 > ' l j.l ",
"> = - ' ) - &   + 5+l+m+9+n+2+o+p+q+)+$.G N x P r.8 8 r.r.r.8 d+d+d+d+k+q.q.( 8   * ) ~ ~ ",
"> > # * = $ % ; ; r+s+h+t+u+v+w+x+y+)+_.O O P Z ).&+d+8 8 8 d+d+z+z+d+d+k+q.( x 8 * > ) - ",
"  & ; ; ; - = = ! ! A+B+C+j+D+E+F+G+H+)+P P Z r.E.)+d+d+d+d+z+z+z+I+I+z+z+k+q.( 8 - >   ; ",
"  % * ; $ > ) ) ~ ~ n.J+K+a+p+L+M+N+O+)+P Z r.E.)+d+d+d+z+z+I+I+I+I+8 8 8 8 8 8 > * @ , % ",
"# @ * & l ! ) # n.n.n.n.P+p+E+L+M+H+Q+)+Z r.E.)+d+d+z+z+I+I+I+I+8 8 n.; ' ~ ~ ! ' , + * ; ",
"! - $ ' * = ! = n.n.n.n.n.P+P+L+M+R+S+T+)+)+)+d+z+z+I+I+z+8 8 8 n.n.n.- $ l ! ! ~ - ! % , ",
"j.~ ! ' % > * = n.n.n.n.n.n.n.U+U+U+U+U+U+V+V+W+8 8 8 8 8 n.n.n.n.n.n.~ l * & # ~ l l l ! ",
"~ j.j.~ = * $ ) * @ n.n.n.n.n.n.n.n.V+W+X+X+X+W+W+n.n.n.n.n.n.n.n.; % > ;   .   # - l j.j.",
"= l ' l = & & , .   # # n.n.n.n.n.n.n.X+Y+Y+Y+X+n.n.n.n.n.n.n.~ =   % .   * ; % . + = ~ ~ ",
"- ! ; ) ) $ $ % > ) ; # + % ; - ' ' ) ! ) n.' - ; * ! ' ; = ) ! ' , , * ' & ) ; ;   % ! l ",
"  ! ! * = = = ! l l - - ' ) > ! - , & = ! l ' ! l l = +   l = @ > ) - ! j.> = ) = - @ ' - ",
"@ + & ! ~ ~ l ~ ! j.j.~ - ' ~ - , + + & * > ~ ~ ' & % + % % # > ) l j.l = j.j.= * > l + . ",
"# + ; $ ) l ~ = = l l ~ = = - $ # > & * * - ~ ~ ) , @ ' + + - ; l ! ; ) ! j.~ l = ) $ * ) ",
"= = - > * ; l = - ~ ! ~ l ~ - ' ~ = ' > - ~ - ~ ! - ! ~ - - * ' ~ # - ' = l = l l ! ) ' ) "};
