/* XPM */
static char *result[] = {
/* columns rows colors chars-per-pixel */
"45 45 256 2 ",
"   c black",
".  c #FFFFF9",
"X  c #C8EBF5",
"o  c #50AEE1",
"O  c #C0ECF5",
"+  c #D4F3F8",
"@  c #83D5F1",
"#  c #CBEFF5",
"$  c #95D9F0",
"%  c #2C5BA4",
"&  c #D4EEF3",
"*  c #8AD4EE",
"=  c #D4F7FA",
"-  c #75CAEA",
";  c #F3FBF8",
":  c #7DCAEA",
">  c #5DC0EA",
",  c #2B6EBA",
"<  c #DEEDF1",
"1  c #EDFEFD",
"2  c #1F509C",
"3  c #79C0E6",
"4  c #46B5E9",
"5  c #4EA6DC",
"6  c #B3E3F2",
"7  c #70B7E2",
"8  c #ADD5EB",
"9  c #2C529E",
"0  c #93E2F7",
"q  c #66C5EC",
"w  c #2F72B9",
"e  c #E6F4F5",
"r  c #B1D8EC",
"t  c #EBFAF9",
"y  c #5DA5D6",
"u  c #2376C4",
"i  c #63B9E5",
"p  c #82D1EE",
"a  c #3DA1DE",
"s  c #51B9EA",
"d  c #57B8E5",
"f  c #A9E1F1",
"g  c #CDEAF2",
"h  c #88C9E9",
"j  c #60C8EF",
"k  c #4D97D0",
"l  c #79C6E8",
"z  c #45A0DC",
"x  c #E7F7F7",
"c  c #84C5E7",
"v  c #8CD0ED",
"b  c #2660AD",
"n  c #B6ECF7",
"m  c #AFDEEF",
"M  c #3DA5E0",
"N  c #4FB4E3",
"B  c #A2E0F3",
"V  c #66C0E9",
"C  c #99DCF4",
"Z  c #6ACCEE",
"A  c #DCF2F6",
"S  c #94C8E6",
"D  c #8AC1E2",
"F  c #365D9C",
"G  c #58BDE6",
"H  c #88DAF1",
"J  c #A9E4F5",
"K  c #2B4D92",
"L  c #A0DBEF",
"P  c #9BE0F2",
"I  c #71CFEF",
"U  c #258ED5",
"Y  c #55A3D7",
"T  c #5AB1E2",
"R  c #4D81BF",
"E  c #A7D0E9",
"W  c #439BD5",
"Q  c #E0F7F8",
"!  c #3F96D1",
"~  c #3A9CDA",
"^  c #D6EAF3",
"/  c #3D91D2",
"(  c #44ADE2",
")  c #A9DFF1",
"_  c #43A7E1",
"`  c #F6FFFC",
"'  c #B2CEE3",
"]  c #BCE5F2",
"[  c #328DD2",
"{  c #4894D3",
"}  c #ADE6F5",
"|  c #7AD6F1",
" . c #92CEE9",
".. c #2757A2",
"X. c #3178BF",
"o. c #E0F1F3",
"O. c #79B4DC",
"+. c #E8EFF1",
"@. c #54BCEC",
"#. c #3160A8",
"$. c #A2E3F2",
"%. c #62B4E4",
"&. c #BEE9F2",
"*. c #B2E1F1",
"=. c #206ABE",
"-. c #9ED6EB",
";. c #38AAE5",
":. c #4DC1F1",
">. c #8ED6F1",
",. c #3794D6",
"<. c #4AB0E6",
"1. c #4B9DD7",
"2. c #88B4D8",
"3. c #6CA7D2",
"4. c #579DD1",
"5. c #6F9FCA",
"6. c #FBF9F4",
"7. c #6AB4DF",
"8. c #7BB7DD",
"9. c #64C2E6",
"0. c #65BCE9",
"q. c #5CA7DC",
"w. c #D0E5EF",
"e. c #6B99C3",
"r. c #5E82B6",
"t. c #7CD2F3",
"y. c #5AB5E3",
"u. c #96B9D8",
"i. c #5B7AB1",
"p. c #1B4999",
"a. c #96D2EB",
"s. c #6AC8EA",
"d. c #92A9C8",
"f. c #B4E8F4",
"g. c #FFFDF5",
"h. c #1A60B4",
"j. c #2271BE",
"k. c #4E8EC3",
"l. c #FFFFFD",
"z. c #A4DDF0",
"x. c #2B9ADE",
"c. c #609ACD",
"v. c #5BACDE",
"b. c #67A2D5",
"n. c #3466AE",
"m. c #7ACFED",
"M. c #9BCDE8",
"N. c #277BC6",
"B. c #BBDDED",
"V. c #6FC3E9",
"C. c #8ECDE9",
"Z. c #A6E7F8",
"A. c #396BA4",
"S. c #4868A4",
"D. c #3D77BC",
"F. c #6DBEE6",
"G. c #C3E6F2",
"H. c #93C4E4",
"J. c #3C8ACB",
"K. c #367AB7",
"L. c #F5F6F3",
"P. c #B8E1ED",
"I. c #46A2D8",
"U. c #68ADD7",
"Y. c #2FA4E1",
"T. c #7EBCE1",
"R. c #5EC4ED",
"E. c #C5E1EF",
"W. c #C7DAEA",
"Q. c #357EC4",
"!. c #EEF6F4",
"~. c #3982BF",
"^. c #8ABBDF",
"/. c #55ADD8",
"(. c #61CCF2",
"). c #A5C5E2",
"_. c #8EDCF4",
"`. c #2E94D7",
"'. c #2386CD",
"]. c #3587C7",
"[. c #2466AD",
"{. c #386CB2",
"}. c #3597DA",
"|. c #D7E8F0",
" X c #82A3D0",
".X c #82CDEC",
"XX c #3B73B3",
"oX c #A4CAE6",
"OX c #3C8DD1",
"+X c #65AFE0",
"@X c #94D5F1",
"#X c #1F87D4",
"$X c #183684",
"%X c #AEE9F6",
"&X c #4C88B7",
"*X c #40BBEC",
"=X c #3183CE",
"-X c #C9D2E0",
";X c #3464A1",
":X c #7FAAD6",
">X c #4F72AD",
",X c #4787C6",
"<X c #4B8CCB",
"1X c #DBFCFC",
"2X c #92B4DA",
"3X c #4592CD",
"4X c #2A66B3",
"5X c #75BDE0",
"6X c #416FAE",
"7X c #3A81C7",
"8X c #97BEDF",
"9X c #90DBEF",
"0X c #BDF1F9",
"qX c #E4E5EB",
"wX c #638FC0",
"eX c #5B94CA",
"rX c #7A93BB",
"tX c #8DAFD1",
"yX c #274386",
"uX c #CBDFEB",
"iX c #79A4C7",
"pX c #3188D1",
"aX c #1E59A9",
"sX c #5B89BD",
"dX c #84AFD4",
"fX c #6F87B8",
"gX c #447FBA",
"hX c #C5F7FC",
"jX c #ABBBD3",
"kX c #2E5590",
"lX c #68D5F9",
"zX c #63BEDF",
"xX c #C0F6FC",
"cX c #BED8EB",
"vX c #A5C0DC",
"bX c #4B77AA",
"nX c #98E6F8",
"mX c #71AECB",
"MX c #A2AFCB",
"NX c #779CCE",
"BX c #DBDBE3",
"VX c #648CB5",
"CX c #58D1F3",
"ZX c #283774",
"AX c #137FD2",
"SX c #7CDAF1",
"DX c #7BE0FB",
"FX c #37B1EB",
"GX c #0D4396",
"HX c #3D8EBF",
"JX c #A8EDFD",
"KX c #F1F2EE",
"LX c #B5C5DE",
"PX c #9C9FB8",
"IX c #BDC3D5",
"UX c #F7F2EF",
/* pixels */
"P.g.6.g E.] k K.P.g g.KXp zXH sXBX!.E.+.< &XmXO L.L.^ < %XN.c.O e g.a.zXs.7 5.. KX< 6.rX  ",
"1.E.e &.f.@ I.2.& 5.+.f.R.: # T :XQ f # .X%.4.k $ X g } q ,.).' 2.l.* G 6 B W D = 6 # /.  ",
"S y.R.Q Z.( 5.!.; ' 7./ F.+ r P Y vX= H Z i F.P I.>.= DXz  X; e 2Xc.OXB g z.B j.E + I j   ",
"c.n.O.$ h w 8 &.& X 3XX.c.* f hXy 5.0 N ] e 7.]., 3 l y Q.g # x 2.w ,XD >.O J k  .I 3 )   ",
"u.2.wX..S.^ p $.&.l : z.k v.o M Q tX2 7 1 xXU.B.u.>Xp.' & 9Xf.*.: O T.! V M F.1 5.p.).JX  ",
"+ # 5Xj.U.. g SXq l ` * s.y.b.uXJ ! n.S.r.D.W.Q L k ! } . } Z G g o.d 9.I.8X< _.! #.;XS.  ",
"Q O.U P 0X| < N F.z.q ( 8.E g + $ * | ].S.w.& E ].i # z.&.B.;.>.* V 1.M.B.. f * $ (.u F   ",
"m.H $.9.( * +.cX-.Y.4 ,.r . %X| @ >.- * 8Xr.q.I m.* y.V & |.w.T Y.U y g.1 SXj H l C.8 VX  ",
"~ 0  .D o.; . . w.4.pX5 ; h G { [ #Xr 8 `.#.b @.} Y oX!.; g.. oXJ.'.r o.o W X.[ J.B.C.gX  ",
"U.5 7 n O 3 h C.x . E.-.q.b aX, D ^.E M.C Y r.2.W S n * h a.) . L.Q r , ..u Y T.W.E.& d.  ",
"&Xd.; k sX8 OXx.Z L . t 3.j.N l -.x e ; L V.2. XW.a.w H.T.#Xs I f.. w.w ].3 a.f t o.X mX  ",
"d.G.0.U J.i.8 ( *X:.V.v . :Xs.6 P.*.- d <. .b.8 a.[ a XXrXz.4 :.j > & qXU.0 6 *.L G 5 &X  ",
"-Xv x.<._ K.r.,./ a U i ) 6 P.$ @ N V q z O.LXm a FX<.pXK.r.=X/ a `.: ) ] m 9X- N V y.kX  ",
"+ } ) > d CX4.9 % 9 J.N ;.> X # *.: 9.V T .X1 P &.I d s CXk.p.9 #.o 4 ;.9XX A -.v p m./.  ",
"L.^ . *.- m D F n.#.K n.<.+Xu _ = ; p 4X4.* !.< x o.- -.P.3...n.% 2 J.j 1.N.H ; Q - l D   ",
"Z.Z.L e 6.e 3. .].b u.E b p.% R v.>.}.u R e.n J z.& 6.L.r U.8.h.i.uXwX..2 >XD.7 m.~ c.4.  ",
"Y.x.*X_.# ^ | j W R hXq h.r.-X` 6Xp. X* 0.X.,.}.;.m.*.e L (.s w 2.JXu F d.6.8XGXb :XT.kX  ",
"b ..A.A.i + L *Xi a.].+XdX. # s 2 PX^ l ,XfXi.2 ;XA.~.6 & j _ S 3 '.{ -Xl.t.,.i.BXc w K   ",
"U.p w F k.DXX * 8 v.v.8.A ] :.N.MX= s h.-XtX{.C k.A.9 > J v  .^._ W c e @ Y.X.< P U p.y   ",
"M.{ % 4XK 3Xt.&.y.a i 7.o @ X.4.h _ Q.R %.y m 3 {.=., bX4 0 ) x.a F.z q Y {.i T M {.OX%   ",
"b.i.' >XyXi.T.o o C B.1 O.,  Xc w fX' A 6 B V =.w ^.sXK rX1.M t.v |.O Q.S.).3XsXE w.+ e.  ",
"-.1 Q B.O.C D X.z y.` n M b. .j.%.= + xXO p y._ P H.X.p J k <Xz 8 ` > D.oX{ AXX + # t 3.  ",
"> 9.a.1XnX,.D.|.e ' T.<XT nX5X$ '.iXxXm.q - I $ NX,X* (.'.l &.uX2XO., m 7 8X: K.= hXI HX  ",
"3X[.h .Xy =.' = o.+.eX! ,X> $ >.^.:X7.> $.C >.r NX] _.[ ! c S l.' ~.{ y v $ V.2.M.q.* 5X  ",
"u.D ~.p.,X|.f.P O : @XC y 7.o 5 ` dX$XwX-.w v.= . t z.cXv '.D # C.Z.3 8.s.N S ` k.$XiXe.  ",
"t r N.k.J . o.* G : 1XC.q >  .g.B <.y >X$X6X5 : t *.# 0Xo +X] - } # > s.- g ) q 9.1.2 K   ",
"P 5 z 0 L t.^ 7 9.L s 5 8.& & O _.J j /.b.5 O.C.;.O + Z { w.A X _.@.~ m e *.p 1.L | y &X  ",
"( | f.o _ @X6.. c `.~ }.w.. 0 G 9.T oX] 0 $ c 7X<X$ t.3Xb.0Xf n d #X7 1 C O J N.H.= P mX  ",
"eXh T 8 e ; g.g.< 3.Y c t 7.=XX.X.7X^ Z.&.= 3.^.eXR ..W.*.$.P f o a 8 M.5 a o Q u.XXE P   ",
"L.3.c S r l c @Xx g.. t OXb R T  .A eXc.0X/.' # n gX% X . >.I d *.+ T u ,  XqXz.XX$Xi.r.  ",
":Xr M.h.wXcXq.;.(.* !.t u.N.t.f m + q.S.K d.; P.[ Y G.$.# E.Y.a.) .X%.T.H.l.Q V.7.y.b yX  ",
"IX$ x.4 a 9 ).R.:.j d : l.8 s.P f.) | W rXM.@ p zXH d d X W.S l Y.~ ,.+.` 0 t.H $ s c VX  ",
"W.C I q <./.K./ 7XOXM @.- P t n H s - f c.GX].Z n F.8 +.; . g.4.k AXS 1 Z /.J.d [ uXS ..  ",
"+ X < B Z @ : / {.9 / <.M R.2X).X R.- V.V gX#.V.Y b.1 X ] X + . A H.m 5.2 4XQ.5 O.m E iX  ",
"%.o t.^ A &.+X~ v H.k o k , , u  .t -.H 0 i tXiXjXX 1.5X+X[ 0.G.!.. E h.X.1.h O 1 x ` e.  ",
"j.k o Q.d.G.v.a 4 %.7 3 BXXXd V.q.6 V 0.T v u.vX1 Y , D.vX7 4 *Xp C + ).I.0 m ] ) p - ~.  ",
"c h #X}.u #.^.z M z =X0.} B z.p z N.Q.k G 4.NX6 ( ~ @.w S.D ,.M ( }.@ + G.$ 9Xm.d o _ ;X  ",
"& : M 4 ( I.A.K 9 9 { @.x.> A X O.% jX2XpX$ ; _.v @.N o N ;XK 9 n.o 4 ;.B A g : i v 0.F   ",
"g G.& Z @.j zXyX9 #.K 4Xj F./ 9.+ x 3 % q.@ e X 6.&.> V @ 7.K F % 2 / (.%.z %Xo.x i b ;X  ",
"e & +.|.B.|.e.:X, % fXu.n.9 9 {.F.Z.,.aX#.e.Q g X < < < w.e.5.=.n.jXe., 2 % <X$ nX'.2 X.  ",
":.:.lX+ g.] s.I ! #.= p p.kXjX+.6Xu R T 5XgX<.@.:.0 Q 6.m R.q h.tX1X~.$X>XqX2XaXU <Xl A.  ",
"b aX6X! J A | 4 z O.! W i.UXx q 2 fX+.hX7X6Xr.2 % bXI.f.< Z ;.7.7 ,.N.d.l.} 1.yXMX1 S 2   ",
"R k [.F N n @Xs E 3 ! 8Xe o.:.u VX1 t.`.LXMX% 3.bXK.F G n p q oX_ k.r . z.FX=.-XhX4 y 5.  ",
"B q.j...&XlX) m i U i T.0.Z =X7X3 G U R L y dXZ.R % % k.lXJ r / ~ h a t.s u 5 h *Xj.O.8.  ",
"5 =.=., ZXXX> V.U `.7 v #XA.F W 4XkX..4.[ y.C.=.h.=X[.ZXHXZ v.U ~ G.7 [ F ~.W [.[.X.( [.  "
};
